<svg width="247" height="167" viewBox="0 0 247 167" fill="none" xmlns="http://www.w3.org/2000/svg">
<g filter="url(#filter0_d)">
<g filter="url(#filter1_d)">
<path d="M207.11 67.2906H207.092C207.092 67.1693 207.11 67.0481 207.11 66.9269C207.11 50.3886 193.346 36.9675 176.345 36.9675C174.157 36.9675 172.023 37.1926 169.978 37.6256C163.879 23.1827 149.314 13 132.277 13C119.491 13 108.092 18.7494 100.623 27.7199C95.6641 25.2643 90.1805 23.9827 84.6176 23.9793C66.2117 23.9793 51.0957 37.6256 49.3352 55.099C29.3288 56.1381 13.2703 72.1049 13.0035 91.9335C12.719 112.576 29.7022 129.547 50.9001 129.807C52.554 129.824 54.1545 129.72 55.755 129.53C63.9532 146.363 81.541 158 101.939 158C114.245 158 125.52 153.757 134.34 146.709C141.08 151.575 149.403 154.485 158.437 154.485C176.967 154.485 192.563 142.38 197.418 125.841C200.477 126.828 203.731 127.383 207.128 127.383C224.165 127.383 237.982 113.927 237.982 97.3365C237.965 80.7463 224.165 67.2906 207.11 67.2906Z" fill="white"/>
</g>
<g filter="url(#filter2_d)">
<path d="M225.249 73.0227C232.238 79.8978 227.294 95.6568 222.493 100.8C213.032 110.896 195.675 108.541 188.704 107.086C186.819 106.688 186.517 106.827 185.894 107.19C185.343 107.519 185.094 108.039 184.489 109.268C182.249 113.979 176.451 123.105 164.216 126.776C151.466 130.604 139.444 124.768 133.824 121.287C131.69 119.971 131.601 119.936 130.641 119.953C129.663 119.971 128.703 120.663 127.547 121.547C122.461 125.443 110.848 132.318 92.9402 131.314C75.3879 130.327 65.3402 119.797 61.8902 114.377C61.2322 113.338 60.5209 112.472 59.7028 112.386C58.7603 112.299 57.7111 113.234 56.9286 113.996C49.4596 121.079 25.9498 123.209 18.1606 111.139C26.0921 123.521 38.3449 129.651 50.9178 129.807C52.5717 129.824 54.1722 129.72 55.7727 129.53C63.9709 146.363 81.5587 158 101.956 158C114.263 158 125.537 153.757 134.358 146.709C141.098 151.575 149.42 154.485 158.454 154.485C176.985 154.485 192.581 142.38 197.436 125.841C200.495 126.828 203.749 127.383 207.146 127.383C224.182 127.383 238 113.927 238 97.3366C237.964 88.5046 233.412 78.5297 225.249 73.0227V73.0227Z" fill="#7E98A8"/>
<path d="M225.249 73.0227C232.238 79.8978 227.294 95.6568 222.493 100.8C213.032 110.896 195.675 108.541 188.704 107.086C186.819 106.688 186.517 106.827 185.894 107.19C185.343 107.519 185.094 108.039 184.489 109.268C182.249 113.979 176.451 123.105 164.216 126.776C151.466 130.604 139.444 124.768 133.824 121.287C131.69 119.971 131.601 119.936 130.641 119.953C129.663 119.971 128.703 120.663 127.547 121.547C122.461 125.443 110.848 132.318 92.9402 131.314C75.3879 130.327 65.3402 119.797 61.8902 114.377C61.2322 113.338 60.5209 112.472 59.7028 112.386C58.7603 112.299 57.7111 113.234 56.9286 113.996C49.4596 121.079 25.9498 123.209 18.1606 111.139C26.0921 123.521 38.3449 129.651 50.9178 129.807C52.5717 129.824 54.1722 129.72 55.7727 129.53C63.9709 146.363 81.5587 158 101.956 158C114.263 158 125.537 153.757 134.358 146.709C141.098 151.575 149.42 154.485 158.454 154.485C176.985 154.485 192.581 142.38 197.436 125.841C200.495 126.828 203.749 127.383 207.146 127.383C224.182 127.383 238 113.927 238 97.3366C237.964 88.5046 233.412 78.5297 225.249 73.0227V73.0227Z" fill="url(#paint0_radial)"/>
</g>
</g>
<defs>
<filter id="filter0_d" x="0" y="0" width="247" height="167" filterUnits="userSpaceOnUse" color-interpolation-filters="sRGB">
<feFlood flood-opacity="0" result="BackgroundImageFix"/>
<feColorMatrix in="SourceAlpha" type="matrix" values="0 0 0 0 0 0 0 0 0 0 0 0 0 0 0 0 0 0 127 0"/>
<feOffset dx="-2" dy="-2"/>
<feGaussianBlur stdDeviation="5.5"/>
<feColorMatrix type="matrix" values="0 0 0 0 0 0 0 0 0 0 0 0 0 0 0 0 0 0 0.25 0"/>
<feBlend mode="normal" in2="BackgroundImageFix" result="effect1_dropShadow"/>
<feBlend mode="normal" in="SourceGraphic" in2="effect1_dropShadow" result="shape"/>
</filter>
<filter id="filter1_d" x="9" y="9" width="232.982" height="153" filterUnits="userSpaceOnUse" color-interpolation-filters="sRGB">
<feFlood flood-opacity="0" result="BackgroundImageFix"/>
<feColorMatrix in="SourceAlpha" type="matrix" values="0 0 0 0 0 0 0 0 0 0 0 0 0 0 0 0 0 0 127 0"/>
<feOffset/>
<feGaussianBlur stdDeviation="2"/>
<feColorMatrix type="matrix" values="0 0 0 0 0 0 0 0 0 0 0 0 0 0 0 0 0 0 0.25 0"/>
<feBlend mode="normal" in2="BackgroundImageFix" result="effect1_dropShadow"/>
<feBlend mode="normal" in="SourceGraphic" in2="effect1_dropShadow" result="shape"/>
</filter>
<filter id="filter2_d" x="18.1606" y="73.0227" width="219.839" height="88.9773" filterUnits="userSpaceOnUse" color-interpolation-filters="sRGB">
<feFlood flood-opacity="0" result="BackgroundImageFix"/>
<feColorMatrix in="SourceAlpha" type="matrix" values="0 0 0 0 0 0 0 0 0 0 0 0 0 0 0 0 0 0 127 0"/>
<feOffset dy="4"/>
<feColorMatrix type="matrix" values="0 0 0 0 0 0 0 0 0 0 0 0 0 0 0 0 0 0 0.25 0"/>
<feBlend mode="normal" in2="BackgroundImageFix" result="effect1_dropShadow"/>
<feBlend mode="normal" in="SourceGraphic" in2="effect1_dropShadow" result="shape"/>
</filter>
<radialGradient id="paint0_radial" cx="0" cy="0" r="1" gradientUnits="userSpaceOnUse" gradientTransform="translate(43.7452 149.778) rotate(-17.7111) scale(203.92 1257.1)">
<stop offset="0.0913884" stop-color="#B7094C"/>
<stop offset="0.317708" stop-color="#892B64"/>
<stop offset="0.541667" stop-color="#5C4D7D"/>
<stop offset="1" stop-color="#2E6F95"/>
</radialGradient>
</defs>
</svg>
