<svg width="100" height="100" viewBox="0 0 100 100" fill="none" xmlns="http://www.w3.org/2000/svg">
<path d="M90 0H23.465C21.4306 0.00711 19.4461 0.663993 17.7739 1.8838C16.1017 3.10361 14.8207 4.8289 14.1 6.83158L0.315007 45.5211C0.105704 46.112 -0.000991784 46.7377 6.94697e-06 47.3684V57.8947C6.94697e-06 63.7 4.48501 68.4211 10 68.4211H38.06L32.45 86.1421C31.9498 87.7244 31.8132 89.409 32.0514 91.0577C32.2895 92.7063 32.8956 94.272 33.82 95.6263C35.7 98.3632 38.73 100 41.94 100H50C51.485 100 52.89 99.3053 53.845 98.1053L77.345 68.4211H90C95.515 68.4211 100 63.7 100 57.8947V10.5263C100 4.72105 95.515 0 90 0ZM47.655 89.4737H41.93L49.74 64.8211C49.9902 64.0303 50.0584 63.1882 49.939 62.3642C49.8196 61.5402 49.516 60.7579 49.0532 60.0816C48.5903 59.4053 47.9815 58.8543 47.2769 58.4741C46.5722 58.094 45.7918 57.8954 45 57.8947H10V48.3211L23.465 10.5263H70V61.2526L47.655 89.4737ZM80 57.8947V10.5263H90L90.005 57.8947H80Z" fill="white"/>
</svg>
