<svg width="96" height="96" viewBox="0 0 96 96" fill="none" xmlns="http://www.w3.org/2000/svg">
<path fill-rule="evenodd" clip-rule="evenodd" d="M73.7448 40.5573C73.7448 41.8037 73.671 43.0353 73.5457 44.2448H80.9575C81.7144 35.9424 79.8946 27.6085 75.7459 20.3772C71.5972 13.146 65.3211 7.3687 57.7718 3.83167C50.2225 0.294642 41.7667 -0.830326 33.5553 0.609877C25.3438 2.05008 17.7755 5.9855 11.8805 11.8805C5.9855 17.7755 2.05008 25.3438 0.609877 33.5553C-0.830326 41.7667 0.294642 50.2225 3.83167 57.7718C7.3687 65.3211 13.146 71.5972 20.3772 75.7459C27.6085 79.8946 35.9424 81.7143 44.2448 80.9575V73.5457C37.5654 74.2924 30.8166 72.9936 24.8915 69.821C18.9664 66.6485 14.1442 61.7517 11.0629 55.7785C7.98166 49.8054 6.78657 43.0376 7.63578 36.3704C8.48498 29.7032 11.3385 23.451 15.8187 18.441C20.2989 13.4311 26.1946 9.89942 32.7259 8.31342C39.2571 6.72742 46.1159 7.16181 52.3949 9.55912C58.6738 11.9564 64.0769 16.2037 67.8893 21.7388C71.7016 27.274 73.7435 33.8363 73.7448 40.5573ZM25.8073 36.8698C27.7633 36.8698 29.6391 36.0928 31.0222 34.7097C32.4053 33.3266 33.1823 31.4508 33.1823 29.4948C33.1823 27.5388 32.4053 25.663 31.0222 24.2799C29.6391 22.8968 27.7633 22.1198 25.8073 22.1198C23.8513 22.1198 21.9755 22.8968 20.5924 24.2799C19.2093 25.663 18.4323 27.5388 18.4323 29.4948C18.4323 31.4508 19.2093 33.3266 20.5924 34.7097C21.9755 36.0928 23.8513 36.8698 25.8073 36.8698ZM40.5573 55.3073C45.8083 55.3073 50.5504 53.1095 53.9061 49.5843L59.1202 54.8058C56.7155 57.3006 53.8319 59.2841 50.6422 60.6376C47.4525 61.991 44.0223 62.6865 40.5573 62.6823C37.0238 62.6866 33.5272 61.9633 30.2854 60.5575C27.0435 59.1516 24.1259 57.0933 21.7142 54.5108L26.9283 49.2893C28.6546 51.1875 30.759 52.7036 33.1062 53.74C35.4534 54.7764 37.9915 55.3103 40.5573 55.3073ZM55.3073 36.8698C57.2633 36.8698 59.1391 36.0928 60.5222 34.7097C61.9053 33.3266 62.6823 31.4508 62.6823 29.4948C62.6823 27.5388 61.9053 25.663 60.5222 24.2799C59.1391 22.8968 57.2633 22.1198 55.3073 22.1198C53.3513 22.1198 51.4755 22.8968 50.0924 24.2799C48.7093 25.663 47.9323 27.5388 47.9323 29.4948C47.9323 31.4508 48.7093 33.3266 50.0924 34.7097C51.4755 36.0928 53.3513 36.8698 55.3073 36.8698ZM73.7448 58.9948H81.1198V73.7448H95.8698V81.1198H81.1198V95.8698H73.7448V81.1198H58.9948V73.7448H73.7448V58.9948Z" fill="#525252"/>
</svg>
