<svg width="100" height="100" viewBox="0 0 100 100" fill="none" xmlns="http://www.w3.org/2000/svg">
<path d="M90 31.5789H61.94L67.555 13.8579C68.565 10.6579 68.055 7.11053 66.18 4.37368C64.305 1.63684 61.265 0 58.06 0H50C48.515 0 47.11 0.694736 46.155 1.89474L22.655 31.5789H10C4.485 31.5789 0 36.3 0 42.1053V89.4737C0 95.2789 4.485 100 10 100H76.535C78.5694 99.9929 80.5539 99.336 82.2261 98.1162C83.8983 96.8964 85.1793 95.1711 85.9 93.1684L99.685 54.4789C99.8943 53.888 100.001 53.2623 100 52.6316V42.1053C100 36.3 95.515 31.5789 90 31.5789ZM10 42.1053H20V89.4737H10V42.1053ZM90 51.6789L76.535 89.4737H30V38.7474L52.34 10.5263H58.07L50.26 35.1737C50.0065 35.9648 49.9357 36.8082 50.0537 37.6338C50.1717 38.4595 50.4749 39.2436 50.9383 39.9213C51.4017 40.5989 52.0119 41.1505 52.7182 41.5303C53.4246 41.9101 54.2068 42.1072 55 42.1053H90V51.6789Z" fill="white"/>
</svg>
